<svg width="300" height="300" viewBox="0 0 300 300" fill="none" xmlns="http://www.w3.org/2000/svg">
<path d="M112.5 200H54C52.1144 200 51.1716 200 50.5858 200.586C50 201.172 50 202.114 50 204V257.621C50 259.878 50 261.007 50.732 261.607C51.464 262.207 52.5708 261.986 54.7845 261.543L109.284 250.643C110.824 250.335 111.593 250.181 112.047 249.628C112.5 249.075 112.5 248.291 112.5 246.721V78.2792C112.5 76.7095 112.5 75.9246 112.953 75.3716C113.407 74.8187 114.176 74.6647 115.716 74.3569L232.716 50.9569C234.929 50.5142 236.036 50.2928 236.768 50.8929C237.5 51.493 237.5 52.6218 237.5 54.8792V112.5M237.5 175V221.721C237.5 223.291 237.5 224.075 237.047 224.628C236.593 225.181 235.824 225.335 234.284 225.643L179.784 236.543C177.571 236.986 176.464 237.207 175.732 236.607C175 236.007 175 234.878 175 232.621V179C175 177.114 175 176.172 175.586 175.586C176.172 175 177.114 175 179 175H237.5ZM237.5 175V112.5M237.5 112.5L112.5 137.5" stroke="#333333" stroke-width="2"/>
</svg>
